<svg width="196" height="62" viewBox="0 0 196 62" fill="none" xmlns="http://www.w3.org/2000/svg">
<path d="M196 61.879V61.759C195.827 61.759 195.646 61.7498 195.455 61.7319C195.265 61.7145 195.132 61.6921 195.06 61.6647C194.987 61.6391 194.942 61.6119 194.924 61.5852C194.896 61.5314 194.884 61.4155 194.884 61.2366V57.6851C194.884 57.2919 194.742 56.9523 194.462 56.6664C194.124 56.3264 193.671 56.1567 193.1 56.1567C193.017 56.1567 192.836 56.1725 192.554 56.2033C192.272 56.2346 192.005 56.4546 191.751 56.8626C191.568 57.1563 191.45 57.4937 191.395 57.8751V56.1699L188.932 56.3841V56.5041C189.53 56.5041 189.875 56.5353 189.965 56.5984L190.048 56.7327C190.083 56.7779 190.104 56.84 190.109 56.9209C190.113 57.0014 190.116 57.0818 190.116 57.1629V61.2344C190.116 61.4503 190.089 61.5799 190.033 61.6247C189.878 61.6785 189.706 61.7144 189.51 61.7317C189.315 61.7496 189.118 61.7588 188.917 61.7588V61.8788H192.403V61.7588C192.269 61.7588 192.112 61.7496 191.933 61.7317C191.756 61.7142 191.635 61.6919 191.567 61.6645C191.498 61.6378 191.456 61.6113 191.438 61.584C191.41 61.5306 191.395 61.4137 191.395 61.2344V58.6011C191.478 57.9655 191.618 57.4552 191.819 57.0696C192.082 56.5596 192.421 56.3036 192.84 56.3036C193.157 56.3036 193.376 56.4873 193.494 56.8548C193.566 57.0789 193.603 57.4049 193.603 57.8351V61.2342C193.603 61.4501 193.575 61.5797 193.522 61.6245C193.376 61.6783 193.209 61.7142 193.017 61.7315C192.827 61.7494 192.657 61.7586 192.514 61.7586V61.8786H196V61.879ZM194.839 44.5552C195.613 43.3222 196 41.0442 196 37.7227C195.952 36.7256 195.928 35.6832 195.928 34.5907V31.3166H195.057V34.7163C195.057 38.6835 194.843 41.3747 194.416 42.7913C193.798 44.8683 192.517 45.9071 190.572 45.9071C188.91 45.9071 187.84 45.0094 187.365 43.2098C187.175 42.4536 187.081 40.796 187.081 38.2406V18.9328H195.42V16.8682H187.081V1.85053H185.849C185.849 5.42462 185.04 8.64229 183.426 11.5017C181.417 15.0758 178.43 17.3388 174.464 18.292V18.933H180.266V39.146C180.266 41.7085 180.941 43.6778 182.296 45.0538C183.649 46.4304 185.775 47.1179 188.677 47.1179C191.721 47.1179 193.776 46.2638 194.839 44.5554V44.5552ZM175.419 56.1701C174.956 56.1701 174.562 56.3332 174.24 56.6586C173.918 56.9832 173.757 57.378 173.757 57.8415C173.757 58.3581 173.948 58.7731 174.332 59.0847C174.651 59.3432 175.099 59.5303 175.679 59.6462C176.258 59.7626 176.661 59.8958 176.888 60.0476C177.181 60.2436 177.327 60.5423 177.327 60.9426C177.327 61.2549 177.216 61.4959 176.998 61.6645C176.816 61.8075 176.582 61.8788 176.3 61.8788C175.926 61.8788 175.646 61.8541 175.458 61.8055C175.272 61.7568 175.073 61.6337 174.865 61.4379C174.708 61.2954 174.563 61.077 174.426 60.7822C174.327 60.569 174.198 60.186 174.043 59.6328H173.949V62C173.965 61.9815 174.157 61.7631 174.52 61.3443C174.82 61.6473 175.097 61.8385 175.351 61.9191C175.522 61.9729 175.81 62 176.21 62C176.691 62 177.09 61.8882 177.407 61.6647C177.807 61.3895 178.006 60.9613 178.006 60.382C178.006 59.7581 177.822 59.3039 177.45 59.0182C177.188 58.8136 176.731 58.6346 176.079 58.4834C175.428 58.3316 174.994 58.1938 174.776 58.0687C174.47 57.8908 174.316 57.6405 174.316 57.3201C174.316 56.9279 174.456 56.6475 174.737 56.4776C174.948 56.3525 175.215 56.2904 175.541 56.2904C175.968 56.2904 176.359 56.4735 176.713 56.8385C177.041 57.1779 177.267 57.6142 177.394 58.149L177.503 58.1751V56.1699C177.485 56.1877 177.299 56.3262 176.945 56.5846C176.89 56.5758 176.691 56.4949 176.346 56.3437C176.083 56.2282 175.773 56.1699 175.419 56.1699V56.1701ZM155.249 46.4768H173.956V45.8365C172.941 45.8365 171.925 45.7898 170.912 45.6939C169.897 45.5986 169.195 45.4796 168.807 45.3371C168.42 45.1951 168.179 45.0515 168.083 44.9089C167.938 44.6238 167.866 44.0061 167.866 43.0545V24.147C167.866 22.0074 167.188 20.2001 165.835 18.7257C164.142 16.9183 161.604 16.014 158.221 16.014C158.027 16.014 157.701 16.0386 157.243 16.0853C156.782 16.1329 156.36 16.157 155.973 16.157C154.04 16.3472 152.372 17.5332 150.97 19.7157C149.857 21.4711 149.157 23.2984 148.867 25.1953V0L134.944 1.20938V1.85032C137.942 1.85032 139.875 1.97029 140.744 2.2088C141.036 2.30412 141.349 2.59028 141.688 3.06606C141.882 3.30498 141.99 3.63881 142.014 4.06836C142.038 4.49751 142.051 5.02095 142.051 5.64135V43.0473C142.051 44.1916 141.906 44.8833 141.616 45.1218C140.793 45.4083 139.814 45.5986 138.679 45.6939C137.542 45.7898 136.274 45.8365 134.872 45.8365V46.4768H154.234V45.8365C153.507 45.8365 152.674 45.7898 151.731 45.6939C150.789 45.5986 150.135 45.4796 149.774 45.3356C149.411 45.1937 149.181 45.0505 149.085 44.9069C148.939 44.6207 148.867 44.002 148.867 43.0473V28.7423C149.302 25.5953 150.124 22.9247 151.333 20.7309C152.783 18.1084 154.523 16.7969 156.553 16.7969C158.438 16.7969 159.719 17.5849 160.397 19.1569C160.832 20.1592 161.05 21.6845 161.05 23.7359V43.0475C161.05 44.1918 160.904 44.8835 160.615 45.122C159.841 45.4085 158.947 45.5988 157.932 45.6941C156.916 45.79 156.021 45.8367 155.249 45.8367V46.477V46.4768ZM140.113 53.2552H134.87V53.3758C135.578 53.3758 136.077 53.4296 136.368 53.5362C136.459 53.5722 136.512 53.6085 136.53 53.6439C136.567 53.7152 136.586 53.876 136.586 54.1258V59.4416C136.586 60.2629 136.968 60.9055 137.73 61.3704C138.419 61.7903 139.278 62 140.304 62C140.85 62 141.371 61.8293 141.871 61.4903C142.587 60.9995 142.947 60.2721 142.947 59.3078V55.2908C142.947 54.6571 143.028 54.2065 143.192 53.9383C143.418 53.5629 143.874 53.3758 144.553 53.3758V53.2552H140.89V53.3758C141.552 53.3758 142.029 53.5523 142.32 53.9039C142.611 54.2563 142.755 54.8915 142.755 55.8091V59.2986C142.755 60.1542 142.442 60.814 141.815 61.2775C141.371 61.6072 140.912 61.7722 140.441 61.7722C139.588 61.7722 138.996 61.5404 138.67 61.077C138.397 60.6935 138.261 60.0562 138.261 59.165V54.1248C138.261 53.8838 138.283 53.7234 138.329 53.6428C138.348 53.6075 138.416 53.5675 138.534 53.5229C138.652 53.4783 138.84 53.4424 139.099 53.4163C139.357 53.3891 139.697 53.3758 140.113 53.3758V53.2552H140.113ZM105.578 39.2885C105.578 37.6751 106.27 36.5121 107.655 35.8011C108.708 35.2787 110.07 35.0172 111.74 35.0172C113.723 35.7771 115.825 36.1565 118.05 36.1565C121.192 36.1565 124.02 35.327 126.534 33.6653C129.337 31.815 130.739 29.4432 130.739 26.5479C130.739 24.6027 130.195 22.8949 129.108 21.4234C128.021 19.9529 126.534 18.7666 124.648 17.8641C124.648 17.3924 124.623 16.6588 124.577 15.6652C124.577 14.4813 124.731 13.5478 125.046 12.8616C125.362 12.1751 126.001 11.7614 126.969 11.6194C126.823 11.8604 126.703 12.1018 126.606 12.3423C126.508 12.5823 126.462 12.8469 126.462 13.1349C126.462 14.675 127.282 15.4445 128.927 15.4445C130.521 15.4445 131.319 14.6027 131.319 12.9179C131.319 12.1484 131.054 11.5233 130.521 11.0419C129.989 10.5614 129.362 10.3201 128.636 10.3201C126.993 10.3201 125.773 10.6646 124.975 11.3521C124.177 12.0401 123.779 13.4993 123.779 15.7291V17.4374C122.907 17.058 121.966 16.7498 120.95 16.512C119.935 16.2751 118.967 16.1566 118.05 16.1566C114.956 16.1566 112.127 17.1293 109.566 19.0745C106.761 21.2093 105.359 23.7959 105.359 26.8322C105.359 28.6365 105.796 30.154 106.665 31.3881C107.535 32.6221 108.742 33.6184 110.29 34.3771C108.066 34.3771 106.35 35.017 105.141 36.2987C103.932 37.58 103.33 39.217 103.33 41.2099C103.33 43.1085 104.03 44.6507 105.433 45.836C106.448 46.6902 108.018 47.4968 110.146 48.256C107.776 48.92 106.037 49.5603 104.924 50.1776C103.33 51.0784 102.532 52.1935 102.532 53.5235C102.532 55.562 103.982 57.3776 106.883 58.9678C109.783 60.5566 113.673 61.3525 118.556 61.3525C122.665 61.3525 125.99 60.4024 128.527 58.505C131.065 56.6064 132.334 53.9019 132.334 50.3915C132.334 47.0692 130.935 44.6973 128.14 43.2737C125.921 42.135 122.667 41.5653 118.377 41.5653H114.182C110.807 41.5653 108.543 41.3521 107.386 40.9254C106.18 40.546 105.578 39.9995 105.578 39.2883L105.578 39.2885ZM118.959 47.9717C122.908 47.9717 125.616 48.3762 127.085 49.1883C128.554 49.9983 129.289 51.5493 129.289 53.8401C129.289 55.7483 128.39 57.3712 126.589 58.7082C124.787 60.0433 122.255 60.7119 118.99 60.7119C114.284 60.7119 111.041 59.9521 109.264 58.4345C108.111 57.4378 107.536 55.9433 107.536 53.9504C107.536 51.8616 108.236 50.3917 109.638 49.5371C111.324 48.4933 114.431 47.9717 118.959 47.9717H118.959ZM111.886 26.1921C111.886 23.2764 112.376 20.9809 113.355 19.3071C114.333 17.635 115.899 16.7969 118.05 16.7969C120.391 16.7969 122.04 17.6823 122.996 19.4507C123.807 20.9328 124.214 23.1805 124.214 26.1923C124.214 29.3966 123.735 31.7521 122.78 33.2579C121.824 34.7633 120.249 35.5164 118.05 35.5164C115.612 35.5164 113.976 34.8003 113.141 33.3651C112.305 31.931 111.886 29.5404 111.886 26.1925L111.886 26.1921ZM80.0537 46.4768H101.228V45.8365C98.0364 45.8365 95.9341 45.6699 94.9186 45.3356C94.5796 45.1937 94.3623 45.0505 94.2662 44.9069C94.1211 44.6207 94.0489 44.002 94.0489 43.0473V16.0853L80.0537 17.2246V17.8645C83.1474 17.8645 85.1302 17.9851 86 18.2228C86.2894 18.3181 86.6045 18.6059 86.9434 19.0842C87.1352 19.3241 87.2328 19.8979 87.2328 20.8053V43.0397C87.2328 44.1866 87.0871 44.8814 86.7977 45.1197C85.9761 45.4063 84.9956 45.5971 83.8606 45.6935C82.7235 45.7888 81.4557 45.8365 80.0539 45.8365V46.4768H80.0537ZM96.415 6.67447C96.415 6.64632 96.4223 6.61818 96.4259 6.58983C96.4259 6.43699 96.4259 6.28373 96.4259 6.13089C96.4186 6.05344 96.4112 5.97559 96.4056 5.89814C96.3413 5.03574 96.0959 4.22469 95.6759 3.46583C95.3129 2.80701 94.8393 2.23222 94.2572 1.74576C93.3797 1.01319 92.3757 0.551171 91.2386 0.368131C91.025 0.332797 90.8056 0.320473 90.5883 0.297875C90.5533 0.293767 90.5183 0.289661 90.4832 0.285553C90.3266 0.285553 90.1718 0.285553 90.0152 0.285553C89.8733 0.297262 89.7311 0.307119 89.5895 0.322937C88.5521 0.431611 87.5994 0.773657 86.7422 1.35852C85.5779 2.15374 84.7762 3.2187 84.343 4.54599C84.1826 5.03553 84.0945 5.53905 84.0704 6.0518C84.0689 6.07851 84.063 6.10501 84.0595 6.13069C84.0595 6.28353 84.0595 6.43678 84.0595 6.58962C84.0689 6.67939 84.0762 6.76958 84.0836 6.85936C84.1552 7.71005 84.3985 8.51123 84.8185 9.25777C85.473 10.4174 86.4106 11.2835 87.6323 11.8511C88.3641 12.1901 89.1339 12.3746 89.9417 12.413C89.9652 12.414 89.9913 12.4196 90.0154 12.4226C90.172 12.4226 90.3268 12.4226 90.4834 12.4226C90.6176 12.4113 90.7539 12.4007 90.8902 12.3863C91.6017 12.3146 92.2782 12.1254 92.9212 11.8197C93.5715 11.5126 94.1502 11.1056 94.6533 10.5994C95.4567 9.79147 95.9946 8.83827 96.2601 7.73798C96.3453 7.38772 96.3964 7.03356 96.4152 6.67406L96.415 6.67447ZM91.9704 1.02243C91.9593 1.03722 91.9498 1.05428 91.9369 1.06599C91.9002 1.10132 91.8558 1.11118 91.8225 1.06742C91.7788 1.01319 91.762 1.03558 91.7401 1.08386C91.7086 1.15103 91.6534 1.1915 91.5834 1.22027C91.5573 1.23054 91.5338 1.25293 91.515 1.27552C91.4873 1.31086 91.458 1.34886 91.4413 1.39036C91.3896 1.51341 91.2962 1.56416 91.1649 1.57443C91.1226 1.57792 91.0747 1.60771 91.0453 1.63955C90.9164 1.7815 90.7947 1.92921 90.6714 2.07486C90.6161 2.13998 90.6103 2.14101 90.5389 2.09129C90.4026 1.99741 90.345 1.85649 90.3027 1.70734C90.2677 1.57915 90.2545 1.45404 90.3247 1.32955C90.3561 1.27162 90.3747 1.20753 90.3988 1.14549C90.4134 1.10502 90.4061 1.07379 90.3523 1.07482C90.2968 1.07626 90.2399 1.07934 90.1846 1.08242C90.2034 1.12905 90.2181 1.17835 90.2401 1.22232C90.2715 1.27819 90.2698 1.31415 90.2108 1.354C90.1241 1.41296 90.0468 1.4826 89.9696 1.55142C89.9287 1.58675 89.9084 1.59292 89.8661 1.54834C89.8201 1.49862 89.7591 1.44624 89.6949 1.43186C89.6264 1.41542 89.5475 1.44151 89.4719 1.45178C89.4499 1.45445 89.4275 1.46719 89.4055 1.47068C89.3486 1.47849 89.2933 1.48198 89.2524 1.42651C89.2233 1.38604 89.1846 1.39981 89.1511 1.422C89.0739 1.47643 88.9966 1.53334 88.9193 1.59025C88.9043 1.59908 88.8894 1.60812 88.877 1.61695C88.7518 1.69542 88.7016 1.82362 88.7407 1.96454C88.7642 2.04343 88.8232 2.07486 88.9005 2.04137C89.0295 1.98693 89.1532 1.92756 89.2139 1.7891C89.2196 1.77575 89.2635 1.76404 89.2786 1.77164C89.3743 1.82485 89.4463 1.78643 89.5163 1.72337C89.5565 1.68844 89.6008 1.65722 89.649 1.63359C89.6986 1.60894 89.7409 1.62845 89.778 1.66892C89.8182 1.71494 89.8643 1.75808 89.9122 1.79752C89.9769 1.85135 89.9895 1.89346 89.9493 1.96988C89.9252 2.01508 89.8955 2.0576 89.872 2.10321C89.8626 2.11964 89.8661 2.14224 89.8643 2.16175C89.8831 2.16216 89.9034 2.16586 89.9195 2.16216C89.9968 2.14737 90.001 2.14737 89.9842 2.22215C89.9654 2.30617 89.9493 2.39328 89.9122 2.47031C89.8517 2.60158 89.7336 2.62829 89.6103 2.55084C89.4719 2.46374 89.4463 2.47031 89.3465 2.60364C89.3282 2.62973 89.2933 2.65438 89.2619 2.65951C89.1693 2.67492 89.0759 2.68971 88.9819 2.68766C88.8253 2.68396 88.6852 2.73594 88.5454 2.79079C88.4842 2.81585 88.4237 2.8483 88.3609 2.86926C88.3274 2.88056 88.2851 2.88816 88.2575 2.87583C88.202 2.8518 88.1708 2.8785 88.1342 2.90603C87.9811 3.02189 87.8134 3.11105 87.631 3.17125C87.5925 3.1846 87.5737 3.20391 87.5684 3.24458C87.5465 3.40153 87.5203 3.55848 87.4926 3.71523C87.4891 3.73721 87.4686 3.77007 87.4524 3.77377C87.4284 3.77891 87.3861 3.76761 87.3766 3.74974C87.3381 3.68256 87.2973 3.61292 87.2791 3.53855C87.2309 3.32901 87.1114 3.22219 86.8905 3.22527C86.577 3.22938 86.3373 3.37503 86.1644 3.62052C86.0944 3.72159 86.0829 3.8502 86.1105 3.97325C86.1311 4.06816 86.2104 4.1152 86.3168 4.10452C86.3559 4.10103 86.3963 4.09384 86.4349 4.08603C86.4977 4.07227 86.54 4.09733 86.5712 4.1491C86.6011 4.20045 86.5821 4.24812 86.5456 4.28489C86.5033 4.32495 86.4554 4.35864 86.4093 4.39459C86.3356 4.45313 86.3356 4.51292 86.4167 4.56078C86.4625 4.5879 86.4719 4.6183 86.4684 4.66699C86.459 4.76498 86.4575 4.86379 86.4575 4.96281C86.459 5.05505 86.5036 5.1249 86.5808 5.174C86.6304 5.20522 86.68 5.23809 86.7339 5.26172C86.8831 5.32786 86.9956 5.29356 87.0896 5.16228C87.1888 5.02074 87.2611 5.01972 87.4062 5.11812C87.5075 5.18797 87.6256 5.24117 87.7437 5.28123C87.8967 5.33259 88.033 5.39976 88.1361 5.52528C88.1622 5.55486 88.2024 5.57541 88.2409 5.59041C88.4677 5.67956 88.6666 5.8057 88.8144 5.99962C88.8421 6.03455 88.8735 6.06886 88.886 6.10933C88.9507 6.31804 89.1111 6.47376 89.2089 6.6646C89.2198 6.68556 89.2512 6.70405 89.2767 6.7096C89.4941 6.75623 89.6988 6.83326 89.8722 6.97522C90.0284 7.10238 90.0508 7.1788 89.9955 7.36944C89.9568 7.4966 89.8848 7.60117 89.7761 7.67902C89.7265 7.71497 89.6951 7.75955 89.6769 7.81584C89.6454 7.90192 89.6084 7.98553 89.5791 8.07181C89.52 8.2532 89.3984 8.39927 89.273 8.53588C89.2087 8.6086 89.0942 8.65482 88.993 8.67783C88.853 8.71049 88.7518 8.7752 88.676 8.89477C88.6097 9.00138 88.5267 9.09876 88.4625 9.20702C88.3722 9.35616 88.2562 9.47203 88.1067 9.5653C87.9757 9.64685 87.8582 9.74833 87.7416 9.84879C87.6957 9.88885 87.6629 9.94781 87.6294 10.001C87.6017 10.0431 87.5906 10.0939 87.5651 10.1354C87.4931 10.2457 87.4914 10.3599 87.5207 10.4846C87.5542 10.6159 87.5739 10.7506 87.6 10.885C87.6109 10.9388 87.5944 10.9557 87.541 10.9347C87.482 10.9111 87.425 10.8823 87.375 10.846C87.1947 10.7157 87.0601 10.5423 86.9587 10.3486C86.9238 10.28 86.9259 10.1927 86.9127 10.1132C86.8924 9.99629 86.8794 9.8794 86.8369 9.76456C86.8055 9.67931 86.8128 9.57844 86.8172 9.48456C86.8207 9.39848 86.8392 9.31282 86.8536 9.22716C86.8683 9.13862 86.8704 9.05541 86.8442 8.96215C86.8207 8.86827 86.8442 8.75959 86.8574 8.65852C86.8794 8.48822 86.9106 8.32018 86.9347 8.15152C86.9384 8.13303 86.9311 8.10694 86.92 8.09564C86.8004 7.98697 86.7873 7.85097 86.8243 7.70758C86.8369 7.65314 86.8222 7.62767 86.7778 7.59726C86.5569 7.44545 86.4022 7.23426 86.2586 7.01527C86.2383 6.98405 86.2286 6.94255 86.2236 6.90393C86.2085 6.81067 86.1995 6.7174 86.1886 6.62454C86.1662 6.44315 86.1828 6.27079 86.3046 6.1196C86.3762 6.02941 86.4409 5.93142 86.509 5.83713C86.5848 5.73154 86.6218 5.61259 86.6198 5.48297C86.6183 5.41579 86.5921 5.35888 86.5331 5.31944C86.5163 5.30773 86.5017 5.2917 86.4834 5.28308C86.3488 5.2159 86.2824 5.1062 86.2699 4.96261C86.259 4.86112 86.2087 4.7847 86.1225 4.73129C86.0634 4.69287 86.0578 4.64254 86.0687 4.58112C86.0911 4.45765 86.089 4.45868 85.9768 4.40383C85.8572 4.3459 85.7443 4.2777 85.6633 4.17005C85.6137 4.10555 85.5875 4.03324 85.5969 3.95106C85.6043 3.87279 85.6116 3.79432 85.6246 3.71728C85.6466 3.59936 85.6116 3.49891 85.5415 3.40502C85.459 3.29389 85.459 3.29286 85.5362 3.18152C86.2508 2.17511 87.1947 1.46493 88.3737 1.05428C88.9524 0.852747 89.564 0.752906 90.2353 0.7451C90.8119 0.747154 91.3741 0.827682 91.9249 0.995314C91.9411 0.999833 91.9543 1.01278 91.971 1.02202L91.9704 1.02243ZM95.9579 6.30017C95.9448 7.56706 95.5876 8.66427 94.8652 9.64459C94.436 10.2276 93.9088 10.7093 93.2899 11.096C93.2863 11.098 93.2821 11.1011 93.2783 11.1027C93.2637 11.1079 93.249 11.113 93.2344 11.1186C93.2434 11.1052 93.2526 11.0919 93.2599 11.0781C93.2932 11.0197 93.3372 10.9639 93.3577 10.9008C93.3707 10.8603 93.3613 10.7989 93.3357 10.763C93.2949 10.7013 93.2897 10.6444 93.3175 10.5824C93.3839 10.4291 93.4538 10.2763 93.5216 10.1241C93.5493 10.0651 93.575 10.0066 93.6048 9.95027C93.6471 9.86872 93.6508 9.7847 93.6303 9.698C93.6136 9.62939 93.5989 9.56057 93.5865 9.49134C93.5474 9.27399 93.6544 9.1041 93.7777 8.9416C93.8169 8.89292 93.8644 8.85142 93.9069 8.8052C94.0415 8.65708 94.0949 8.49027 94.0212 8.29655C94.0009 8.24519 93.9862 8.19034 93.9643 8.13919C93.9052 7.99518 93.9146 7.85364 93.9731 7.71169C93.9955 7.65581 94.0118 7.59829 94.0359 7.54344C94.0911 7.41792 94.0876 7.29117 94.0547 7.16196C94.0415 7.10854 94.0141 7.09991 93.9659 7.11778C93.944 7.12806 93.9199 7.14449 93.8958 7.14346C93.8644 7.14305 93.8206 7.13936 93.8003 7.11881C93.7465 7.05944 93.6787 7.03726 93.605 7.03623C93.4687 7.03315 93.3303 7.02801 93.1959 7.04198C92.9859 7.06252 92.7995 7.00808 92.6391 6.88565C92.4423 6.73548 92.2578 6.5699 92.0734 6.40371C92.0384 6.37289 92.0259 6.30839 92.0217 6.25662C91.9997 6.02941 92.055 5.81104 92.1084 5.59205C92.1398 5.45769 92.1622 5.3219 92.1879 5.18652C92.1915 5.16639 92.1915 5.14195 92.182 5.12551C92.1398 5.05382 92.1695 4.99116 92.2024 4.9281C92.2796 4.77936 92.3977 4.67479 92.5602 4.6257C92.628 4.60515 92.6835 4.57188 92.7206 4.51497C92.8198 4.36213 92.9599 4.28283 93.1385 4.23558C93.3912 4.16697 93.6378 4.15506 93.887 4.23826C93.9234 4.25161 93.9659 4.25161 94.0045 4.25428C94.0895 4.26044 94.1743 4.25633 94.2551 4.27421C94.325 4.28961 94.3952 4.32022 94.454 4.36028C94.5777 4.44492 94.6937 4.54229 94.8154 4.62899C94.8482 4.65261 94.8943 4.66596 94.9349 4.66946C95.0566 4.68075 95.1784 4.6824 95.2995 4.69144C95.3403 4.69411 95.3459 4.67972 95.3424 4.64624C95.32 4.44841 95.169 4.29701 94.9663 4.27462C94.8504 4.26188 94.8039 4.22018 94.771 4.10493C94.7651 4.08398 94.7542 4.06384 94.7469 4.0433C94.7302 4.05809 94.714 4.07309 94.6973 4.08644C94.6659 4.11212 94.6347 4.13657 94.6033 4.16122C94.5792 4.12732 94.5499 4.09569 94.5296 4.05933C94.5093 4.02399 94.4998 3.9829 94.4837 3.94449C94.467 3.90648 94.4429 3.89929 94.4136 3.93319C94.4006 3.94921 94.3876 3.97161 94.3709 3.97777C94.3321 3.99256 94.2884 4.0131 94.2513 4.00591C94.2032 3.99626 94.1703 3.95723 94.1667 3.90135C94.1646 3.85472 94.1611 3.80747 94.1538 3.76083C94.1485 3.72344 94.1297 3.71358 94.0932 3.73515C94.0729 3.74645 94.0394 3.74954 94.0195 3.74193C93.9199 3.70085 93.8221 3.65791 93.7281 3.60922C93.6917 3.58971 93.6843 3.59895 93.6799 3.62977C93.6653 3.72714 93.6491 3.82451 93.6376 3.92312C93.6341 3.97386 93.6177 4.00365 93.5639 4.01187C93.5179 4.01803 93.472 4.0283 93.4297 4.0431C93.2235 4.11089 93.0851 4.03796 92.967 3.86724C92.9006 3.77172 92.851 3.66634 92.7905 3.56629C92.7702 3.52993 92.7811 3.51103 92.8139 3.49254C92.9377 3.42331 93.0667 3.37873 93.2141 3.3777C93.3301 3.37708 93.4167 3.29615 93.4961 3.21931C93.5363 3.17925 93.5698 3.12954 93.6012 3.08085C93.6121 3.06401 93.618 3.03114 93.6085 3.0147C93.5589 2.92247 93.5474 2.82756 93.5736 2.72751C93.5866 2.6778 93.5736 2.64554 93.5124 2.64965C93.5051 2.64965 93.4963 2.64513 93.489 2.64555C93.3688 2.64924 93.2842 2.60446 93.2398 2.48921C93.2216 2.43785 93.1661 2.43436 93.1224 2.4358C93.0022 2.4395 92.9396 2.36863 92.9235 2.26817C92.9029 2.14306 92.901 2.01446 92.8973 1.8873C92.8958 1.87189 92.927 1.84519 92.9469 1.84169C93.0095 1.82937 93.0723 1.82485 93.1349 1.82012C93.2237 1.81396 93.275 1.77041 93.2901 1.68536C93.2991 1.63462 93.3156 1.63092 93.36 1.65968C94.2239 2.21948 94.891 2.95061 95.3575 3.85965C95.6761 4.4821 95.8641 5.14092 95.9305 5.83404C95.9473 6.00825 95.9525 6.18369 95.9582 6.30058L95.9579 6.30017ZM79.3293 21.6373C79.3293 20.925 79.1469 20.1191 78.7855 19.2173C78.4224 18.3161 77.7095 17.5689 76.6465 16.9748C75.5814 16.3821 74.59 16.0853 73.6723 16.0853C71.2544 16.0853 69.2497 17.2727 67.6538 19.6446C66.4947 21.3529 65.8167 23.1796 65.6235 25.1249V16.0855L51.6298 17.1535V17.7945C54.7216 17.7945 56.7044 17.9144 57.5742 18.1517C57.8656 18.2476 58.1784 18.5346 58.5176 19.0131C58.7115 19.253 58.807 19.8504 58.807 20.8071V43.0401C58.807 44.187 58.6634 44.8818 58.3723 45.1201C57.5501 45.4067 56.5719 45.5975 55.4369 45.6939C54.2997 45.7892 53.0305 45.8369 51.63 45.8369V46.4772H72.8026V45.8369C69.6127 45.8369 67.5102 45.6703 66.4947 45.336C66.1557 45.1941 65.9384 45.0509 65.8408 44.9073C65.6972 44.6211 65.6235 44.0024 65.6235 43.0477V29.7436C65.6235 25.6912 66.5391 22.3766 68.3688 19.8017C69.7635 17.8 71.1608 16.7973 72.5555 16.7973C74.0002 16.7973 74.8664 17.2961 75.1557 18.2924C74.2766 18.1032 73.5082 18.4344 72.8486 19.2886C72.1889 20.1427 71.8608 20.9969 71.8608 21.8511C71.8608 23.18 72.2019 24.1768 72.8857 24.8408C73.5689 25.5053 74.3984 25.8369 75.3752 25.8369C76.0087 25.8369 76.5213 25.7422 76.912 25.552C78.5244 24.8408 79.3295 23.5361 79.3295 21.6379L79.3293 21.6373ZM45.1136 26.9002C42.4141 24.3383 38.1721 22.7002 32.3883 21.9886C37.8792 21.1824 41.6128 19.8065 43.5878 17.8616C45.0821 16.4378 45.8286 14.3036 45.8286 11.4569C45.8286 9.13224 44.596 6.87949 42.1304 4.69596C39.0366 1.94523 34.8792 0.569249 29.6588 0.569249H0.000209581V1.20958C4.73798 1.20958 7.80598 1.47212 9.21006 1.99515C9.74083 2.18682 10.0543 2.37663 10.1518 2.56686C10.3451 2.94835 10.4429 3.805 10.4429 5.13661V41.7673C10.4429 43.1476 10.3451 44.0159 10.1518 44.3728C9.95816 44.731 9.61918 45.0045 9.13636 45.1937C8.12088 45.5751 5.07676 45.7654 0 45.7654V46.477H33.7919C38.1426 46.477 41.7671 45.1244 44.6676 42.4193C47.1811 40.0947 48.4395 37.6019 48.4395 34.9451C48.4395 31.6709 47.33 28.989 45.1131 26.9002H45.1136ZM26.0785 21.7081H19.3621V5.15181C19.3621 3.76638 19.4212 2.83577 19.5424 2.35753C19.6626 1.87908 19.9628 1.56888 20.4454 1.42549C20.9245 1.28251 21.6709 1.20958 22.6843 1.20958H26.1484C30.0497 1.20958 32.8177 2.02268 34.4538 3.64661C36.0903 5.27137 36.9104 8.09071 36.9104 12.1042C36.9104 15.6886 35.8987 18.2454 33.8771 19.7732C32.191 21.0631 29.5908 21.7081 26.0787 21.7081H26.0785ZM39.2301 34.9848C39.2301 38.3162 38.4522 40.911 36.901 42.7675C35.2019 44.8136 32.6314 45.8365 29.1875 45.8365C25.8873 45.8365 23.7881 45.8135 22.8907 45.7652C21.9933 45.7185 21.2658 45.5873 20.7074 45.3724C20.151 45.1592 19.7859 44.8607 19.6167 44.4808C19.4469 44.101 19.3623 43.195 19.3623 41.7671V22.3489H27.9491C31.734 22.3489 34.5959 23.5153 36.5364 25.8476C38.3312 27.9896 39.2301 31.0341 39.2301 34.9845V34.9848ZM147.933 57.0945L144.581 61.8792H149.743V59.0455H149.634C149.507 60.057 149.242 60.7917 148.838 61.2485C148.546 61.5889 148.19 61.759 147.768 61.759H146.395C146.204 61.759 146.107 61.7412 146.107 61.7052C146.107 61.6785 146.257 61.4509 146.559 61.0224L149.975 56.1701H145.304V58.6034H145.398C145.562 57.5995 145.827 56.9406 146.2 56.6269C146.452 56.411 146.9 56.304 147.541 56.304H148.083C148.3 56.304 148.409 56.3266 148.409 56.3712L147.934 57.0945H147.933ZM149.839 53.4964C150.384 53.4964 150.733 53.519 150.887 53.5629C150.943 53.5808 150.996 53.626 151.051 53.6973C151.107 53.769 151.133 53.8937 151.133 54.072V62H151.241L151.827 60.9652C152.128 61.381 152.411 61.6569 152.678 61.7944C152.947 61.9308 153.358 62 153.911 62C154.52 62 155.058 61.7124 155.526 61.1372C155.994 60.5624 156.228 59.8693 156.228 59.0576C156.228 58.4255 156.045 57.8236 155.682 57.2535C155.219 56.5316 154.58 56.1701 153.762 56.1701C153.399 56.1701 153.084 56.35 152.815 56.7099C152.548 57.0699 152.413 57.4534 152.413 57.8624V53.1486L149.839 53.3758V53.4964H149.839ZM152.413 58.9777C152.413 58.1081 152.559 57.4279 152.85 56.9355C153.095 56.5146 153.399 56.3038 153.762 56.3038C154.098 56.3038 154.357 56.5146 154.538 56.9355C154.72 57.3564 154.811 58.068 154.811 59.0714C154.811 59.9132 154.73 60.5916 154.566 61.1068C154.402 61.6216 154.134 61.879 153.762 61.879C153.38 61.879 153.09 61.781 152.89 61.5836C152.572 61.2699 152.413 60.692 152.413 59.8508V58.9777ZM157.63 56.9324C157.049 57.5206 156.758 58.2829 156.758 59.2181C156.758 60.0831 157.053 60.7824 157.645 61.3171C158.144 61.7724 158.697 62 159.305 62C160.033 62 160.613 61.7857 161.05 61.3576C161.485 60.9301 161.702 60.3818 161.702 59.7133H161.594C161.594 60.404 161.363 60.9505 160.899 61.3545C160.518 61.6867 160.077 61.8523 159.577 61.8523C159.106 61.8523 158.754 61.6374 158.522 61.2072C158.291 60.7777 158.175 60.0829 158.175 59.1248H161.676C161.676 57.9933 161.389 57.1781 160.818 56.6781C160.427 56.3397 159.937 56.1701 159.347 56.1701C158.711 56.1701 158.138 56.4238 157.629 56.9324H157.63ZM158.175 58.9648C158.175 58.0551 158.277 57.3842 158.477 56.9523C158.68 56.5201 159.028 56.3038 159.523 56.3038C159.873 56.3038 160.125 56.5314 160.282 56.9856C160.44 57.4405 160.518 58.1003 160.518 58.9648H158.175ZM163.228 61.6647C163.038 61.7278 162.67 61.759 162.124 61.759V61.879H165.64V61.759C165.53 61.759 165.39 61.7498 165.216 61.7319C165.045 61.714 164.925 61.6921 164.857 61.6643C164.789 61.638 164.744 61.6105 164.726 61.5838C164.7 61.53 164.685 61.4137 164.685 61.2346V59.4724L165.408 58.7505L166.689 61.2483C166.761 61.3913 166.797 61.4897 166.797 61.5431C166.797 61.66 166.716 61.7255 166.552 61.7385C166.388 61.7529 166.158 61.759 165.857 61.759V61.879H169.18V61.759C168.835 61.759 168.588 61.7299 168.439 61.6713C168.288 61.6134 168.165 61.4852 168.063 61.2884L166.32 57.8758L167.164 57.0565C167.501 56.752 167.767 56.5505 167.962 56.4515C168.157 56.3531 168.426 56.3038 168.773 56.3038V56.1701H165.653V56.3038C166.043 56.3038 166.335 56.351 166.524 56.4458C166.716 56.5396 166.81 56.6723 166.81 56.8437C166.81 57.051 166.674 57.2845 166.403 57.5452L164.685 59.232V53.1488L162.139 53.376V53.4966C162.684 53.4966 163.029 53.5192 163.175 53.5631C163.219 53.5724 163.268 53.6149 163.323 53.6913C163.379 53.7667 163.405 53.8939 163.405 54.0738V61.2358C163.405 61.4507 163.379 61.5803 163.323 61.6249L163.228 61.6647H163.228ZM171.743 54.4325C171.887 54.2895 171.959 54.1116 171.959 53.8972C171.959 53.6833 171.887 53.5054 171.743 53.3624C171.6 53.2199 171.419 53.1486 171.203 53.1486C170.987 53.1486 170.807 53.2199 170.663 53.3624C170.519 53.5054 170.448 53.6835 170.448 53.8972C170.448 54.1114 170.519 54.2893 170.663 54.4325C170.807 54.5751 170.987 54.6464 171.203 54.6464C171.419 54.6464 171.6 54.5751 171.743 54.4325ZM171.918 56.1701L169.29 56.3843V56.5043C169.871 56.5043 170.243 56.5269 170.407 56.5715C170.46 56.59 170.519 56.6438 170.584 56.7336C170.619 56.7786 170.638 56.8858 170.638 57.0571V61.2335C170.638 61.4488 170.612 61.5797 170.557 61.6243C170.402 61.6775 170.218 61.714 170.005 61.7319C169.792 61.7498 169.552 61.759 169.29 61.759V61.879H173.267V61.759C172.669 61.759 172.272 61.7272 172.082 61.6647C172.018 61.638 171.977 61.6115 171.959 61.5842C171.933 61.5308 171.919 61.4139 171.919 61.2346V56.1701H171.918ZM178.266 56.5848V56.7054H179.355V60.502C179.355 60.9833 179.482 61.3535 179.737 61.6119C179.991 61.8708 180.391 62 180.937 62C181.508 62 181.893 61.8385 182.094 61.5181C182.239 61.2863 182.312 60.8588 182.312 60.2343C182.302 60.0476 182.298 59.8512 182.298 59.6462V59.0319H182.134V59.6698C182.134 60.4153 182.094 60.9203 182.015 61.1869C181.898 61.5776 181.657 61.7724 181.292 61.7724C180.979 61.7724 180.778 61.6031 180.69 61.2648C180.655 61.1232 180.636 60.812 180.636 60.3317V56.7054H182.202V56.3174H180.636V53.4966H180.404C180.404 54.1677 180.253 54.7721 179.949 55.3095C179.573 55.9807 179.011 56.4057 178.267 56.585L178.266 56.5848ZM183.398 59.4159C183.019 59.746 182.829 60.1521 182.829 60.6341C182.829 61.1242 183.024 61.4907 183.415 61.7313C183.697 61.9102 184.027 62 184.408 62C184.79 62 185.094 61.9554 185.322 61.8667C185.704 61.7169 185.989 61.4252 186.179 60.992C186.253 61.3724 186.404 61.6415 186.632 61.8005C186.824 61.9332 187.115 62 187.508 62C188.011 62 188.344 61.8882 188.508 61.6647C188.636 61.4868 188.7 61.1392 188.7 60.6224C188.691 60.4531 188.687 60.2754 188.687 60.0876V59.4995H188.523V59.6188C188.523 59.7516 188.525 59.8804 188.531 60.0044C188.534 60.1279 188.536 60.2526 188.536 60.3761C188.536 60.8282 188.496 61.1738 188.415 61.4133C188.332 61.6522 188.173 61.7722 187.937 61.7722C187.673 61.7722 187.51 61.621 187.447 61.3184C187.42 61.1943 187.407 60.8646 187.407 60.3315V57.384C187.407 57.046 187.252 56.7656 186.942 56.5442C186.598 56.2946 186.089 56.1699 185.416 56.1699C185.044 56.1699 184.677 56.2282 184.314 56.3437C183.806 56.5041 183.487 56.7584 183.36 57.1056C183.307 57.2665 183.279 57.4096 183.279 57.5337C183.279 57.7921 183.412 58.0064 183.677 58.1751C183.769 58.2381 183.874 58.2694 183.993 58.2694C184.178 58.2694 184.338 58.2067 184.475 58.0822C184.613 57.9567 184.681 57.7967 184.681 57.6007C184.681 57.431 184.627 57.2792 184.519 57.1461C184.408 57.0121 184.268 56.9452 184.095 56.9452C184.041 56.9452 183.995 56.9503 183.96 56.9589C184.032 56.7584 184.187 56.5994 184.421 56.4811C184.657 56.3632 184.931 56.3036 185.243 56.3036C185.626 56.3036 185.877 56.3667 185.993 56.4924C186.107 56.6175 186.166 56.8591 186.166 57.2174V57.9966C186.166 58.3355 186.07 58.5539 185.88 58.6523C185.69 58.7503 185.326 58.8226 184.782 58.8666C184.24 58.9111 183.778 59.0942 183.398 59.4157L183.398 59.4159ZM184.122 60.5357C184.122 60.0517 184.213 59.676 184.395 59.4077C184.55 59.1831 184.758 59.0401 185.022 58.9775C185.221 58.9504 185.429 58.9216 185.641 58.8894C185.854 58.8585 186.017 58.771 186.126 58.6285V60.4153C186.126 60.8177 185.987 61.1608 185.709 61.4433C185.433 61.7253 185.121 61.8659 184.777 61.8659C184.55 61.8659 184.384 61.774 184.279 61.591C184.176 61.4069 184.122 61.0552 184.122 60.5359V60.5357Z" fill="white"/>
</svg>
